<?xml version="1.0" encoding="UTF-8"?>
<svg width="314px" height="79px" viewBox="0 0 314 79" version="1.1" xmlns="http://www.w3.org/2000/svg" xmlns:xlink="http://www.w3.org/1999/xlink">
    <title>Shape</title>
    <g id="Page-1" stroke="none" stroke-width="1" fill="none" fill-rule="evenodd">
        <g id="OBJECTS" transform="translate(-183.327000, 0.028812)" fill="#FFFFFF" fill-rule="nonzero">
            <path d="M316.589,73.0861885 C317.305,73.4881885 317.845,73.4111885 318.339,72.6611885 C318.489,72.4331885 319.44,71.1841885 319.315,72.9311885 C319.29,73.2751885 319.739,73.5881885 319.885,73.5301885 C320.753,73.1811885 321.663,74.2871885 322.53,73.3781885 C322.863,73.0291885 323.293,73.3011885 323.625,73.6991885 C324.245,74.4431885 325.007,74.4841885 326.018,74.5121885 C327.834,74.5621885 329.19,73.6821885 330.71,73.0831885 C331,72.9691885 331.406,72.6861885 331.649,73.0861885 C331.885,73.4741885 331.396,73.5571885 331.208,73.7561885 C330.312,74.7001885 329.277,75.5121885 328.628,76.6871885 C328.399,77.1011885 327.895,77.4691885 327.443,77.4251885 C325.982,77.2831885 324.553,77.9891885 323.069,77.4821885 C322.53,77.2981885 321.859,77.4161885 321.263,77.4991885 C320.303,77.6321885 319.263,78.1891885 318.863,76.6571885 C318.773,76.3121885 318.273,76.3741885 317.933,76.3101885 C316.728,76.0851885 315.426,76.5681885 314.301,75.5041885 C313.949,75.1721885 312.807,75.6981885 312.615,76.5321885 C312.37,77.5991885 311.699,77.6671885 310.852,77.5401885 C309.741,77.3741885 308.642,77.3471885 307.566,77.7521885 C307.229,77.8791885 306.83,78.1971885 306.635,77.5391885 C306.604,77.4331885 306.283,77.2891885 306.21,77.3371885 C304.548,78.4221885 302.758,76.2161885 301.118,77.5411885 C299.699,76.9881885 298.279,78.0511885 297.014,77.7301885 C295.454,77.3341885 293.995,77.9591885 292.462,77.6341885 C291.412,77.4111885 290.218,77.6811885 289.105,77.9971885 C288.587,78.1441885 287.873,78.5631885 287.445,77.8431885 C287.064,77.2031885 287.335,76.5041885 287.767,76.0271885 C288.611,75.0941885 288.134,74.9881885 287.245,74.9981885 C286.814,75.0031885 286.252,74.7781885 285.971,74.9751885 C284.37,76.0981885 282.596,76.2221885 280.727,76.2231885 C279.181,76.2231885 277.626,76.5051885 276.239,75.5541885 C275.316,74.9211885 274.482,75.6071885 273.644,75.7691885 C272.764,75.9391885 272.143,76.0611885 271.296,75.3891885 C270.513,74.7681885 269.288,74.8151885 268.198,75.0321885 C267.264,75.2181885 266.399,75.4011885 265.682,76.1701885 C265.342,76.5351885 264.459,76.5111885 264.113,76.0721885 C263.504,75.3001885 262.933,75.5331885 262.286,75.8531885 C261.141,76.4201885 259.987,75.8821885 258.839,75.8921885 C258.632,75.8941885 258.297,75.7331885 258.235,75.8131885 C257.321,76.9961885 256.376,76.4331885 255.388,75.9411885 C253.723,75.1111885 251.887,75.7551885 250.156,75.4071885 C249.853,75.3461885 249.584,75.2861885 249.314,75.1421885 C248.19,74.5431885 247.049,74.2591885 245.872,75.0151885 C245.598,75.1911885 245.246,75.3161885 245.022,75.0861885 C244.745,74.8021885 245.31,74.8461885 245.323,74.5651885 C245.376,73.4001885 244.5,73.6411885 243.971,73.7911885 C243.226,74.0021885 242.622,74.3361885 242.236,73.3101885 C242.17,73.1341885 241.676,72.9921885 241.417,73.0391885 C240.218,73.2571885 239.072,73.4621885 237.838,73.0011885 C237.247,72.7801885 237.137,73.8601885 236.564,74.1121885 C236.221,73.6081885 236.635,73.2531885 236.703,72.8611885 C236.759,72.5361885 237.081,72.2071885 236.718,71.9071885 C236.406,71.6501885 236.052,71.9151885 235.72,71.9161885 C233.942,71.9241885 232.241,72.7041885 230.444,72.4361885 C230.126,72.3891885 229.939,72.4111885 229.915,72.7761885 C229.834,74.0271885 229.294,73.3781885 228.894,72.9951885 C228.476,72.5941885 228.731,70.7941885 229.199,70.4191885 C230.062,69.7271885 230.664,68.7021885 231.891,68.4751885 C232.297,68.4001885 232.261,67.8981885 232.195,67.5691885 C232.102,67.1021885 231.658,67.1211885 231.345,67.2111885 C230.512,67.4491885 229.697,67.7521885 228.884,68.0541885 C228.662,68.1371885 228.361,68.1891885 228.382,68.5541885 C228.465,70.0011885 227.396,70.3621885 226.325,70.6461885 C225.82,70.7801885 226.036,71.1861885 225.887,71.4441885 C225.468,72.1711885 225.208,72.4961885 224.197,71.9691885 C223.284,71.4941885 222.744,70.7351885 221.987,70.1701885 C221.76,70.0011885 221.558,69.7191885 221.476,69.4501885 C220.659,66.7621885 220.074,66.4331885 217.474,67.2721885 C217.311,67.8051885 218.502,67.6111885 218.049,68.1431885 C217.015,69.3571885 217.768,71.8481885 215.299,71.9311885 C215.369,71.3201885 215.369,71.3201885 216.265,70.8951885 C215.093,69.1101885 215.01,69.0831885 213.362,70.3871885 C212.717,70.8971885 212.146,71.4991885 211.522,72.0371885 C211.33,72.2031885 211.073,72.3641885 210.802,72.2411885 C210.471,72.0901885 210.639,71.7901885 210.669,71.5481885 C210.724,71.1161885 210.804,70.6871885 210.862,70.2551885 C210.922,69.8131885 211.384,69.1341885 210.248,69.5721885 C209.897,69.7071885 209.002,69.1251885 208.739,68.6561885 C208.134,67.5751885 207.438,67.4921885 206.468,68.0261885 C206.217,68.1641885 205.865,68.5161885 205.67,68.1801885 C205.457,67.8121885 205.353,67.2771885 205.444,66.8691885 C205.515,66.5451885 205.967,66.7431885 206.254,66.8301885 C207.965,67.3521885 209.417,66.2231885 211.026,66.0761885 C211.493,66.0331885 211.243,65.5941885 211.322,65.3341885 C211.459,64.8791885 211.274,64.7131885 210.839,64.6271885 C209.852,64.4341885 208.908,64.7371885 207.946,64.7961885 C206.046,64.9121885 204.377,65.8821885 202.496,66.0731885 C201.442,66.1801885 200.41,66.6251885 199.402,67.0061885 C198.872,67.2071885 198.398,67.2101885 197.862,67.0561885 C197.897,66.4111885 198.637,66.7601885 198.807,66.2411885 C197.321,66.1011885 195.818,66.1591885 194.311,66.3341885 C193.699,66.4051885 193.692,67.0691885 193.191,67.3311885 C192.176,67.8631885 191.164,68.2001885 189.929,68.1771885 C190.873,66.9871885 190.007,66.7821885 189.118,66.6711885 C188.373,66.5781885 187.501,66.3371885 186.921,66.4071885 C185.935,66.5261885 186.346,65.7391885 185.879,65.5121885 C185.539,66.1061885 185.098,66.6671885 184.148,66.0571885 C185.164,64.3221885 186.651,62.9631885 188.549,62.4351885 C189.539,62.1591885 190.188,61.4021885 191.213,61.2461885 C193.699,60.8691885 196.165,60.3481885 198.628,59.8311885 C199.911,59.5621885 200.089,59.1381885 199.543,58.1501885 C199.342,57.7851885 199.147,57.5651885 198.743,57.8441885 C197.914,58.4171885 197.15,57.7461885 196.354,57.7061885 C195.257,57.6511885 195.175,56.8011885 195.115,55.9081885 C195.075,55.3091885 194.57,54.9891885 194.124,55.5271885 C193.058,56.8141885 192.114,55.8631885 191.456,55.2571885 C190.606,54.4751885 189.526,53.9051885 188.927,52.8341885 C188.782,52.5741885 188.358,52.3411885 188.051,52.3271885 C187.252,52.2901885 186.817,51.9141885 186.308,51.2961885 C185.207,49.9581885 185.047,49.3191885 185.958,47.7911885 C187.186,45.7331885 189.203,44.6781885 191.269,43.7471885 C192.801,43.0571885 194.431,42.6511885 195.826,41.5881885 C196.621,40.9821885 197.807,41.1591885 198.821,41.3281885 C199.45,41.4331885 199.982,41.5801885 200.231,40.7691885 C200.334,40.4321885 200.598,40.1511885 200.968,40.0881885 C203.155,39.7151885 205.091,38.7731885 206.876,37.4941885 C207.627,36.9551885 208.441,36.9021885 209.214,37.2851885 C209.842,37.5971885 210.413,37.3511885 211.005,37.3351885 C211.279,37.3281885 211.69,37.2031885 211.574,36.7981885 C211.49,36.5051885 211.141,36.3201885 210.827,36.3841885 C208.878,36.7801885 207.486,36.0691885 206.551,34.3411885 C206.22,33.7291885 205.824,33.4331885 204.973,33.6191885 C204.081,33.8141885 203.224,33.2861885 202.51,32.6801885 C202.481,32.6561885 202.479,32.6001885 202.467,32.5581885 C202.263,31.8581885 200.985,31.7191885 201.367,30.8061885 C201.784,29.8121885 202.461,28.9341885 203.515,28.4571885 C204.017,28.2301885 204.508,27.9781885 205.018,27.7291885 C204.768,27.2471885 204.295,27.1501885 204.09,27.2841885 C202.977,28.0161885 201.702,27.2411885 200.541,27.7651885 C199.863,28.0711885 198.171,26.5341885 198.059,25.6931885 C197.918,24.6341885 196.524,23.6061885 195.458,23.7911885 C194.944,23.8801885 194.417,23.9531885 193.93,24.1281885 C193.067,24.4391885 192.261,24.7261885 191.884,23.5001885 C191.848,23.3851885 191.754,23.2691885 191.656,23.1951885 C191.535,23.1041885 189.048,24.0921885 189.059,24.2361885 C189.111,24.8911885 188.575,24.8811885 188.272,24.7891885 C187.956,24.6941885 187.368,24.4801885 187.825,23.8851885 C187.849,23.8541885 187.869,23.7881885 187.853,23.7631885 C186.422,21.5701885 188.665,21.5161885 189.636,20.8331885 C190.846,19.9821885 192.189,19.3301885 193.005,18.0071885 C193.416,17.3411885 193.395,17.0371885 192.504,16.9471885 C191.182,16.8121885 190.014,16.1301885 188.785,15.6811885 C187.965,15.3811885 187.961,14.2921885 188.591,13.1571885 C189.541,11.4431885 191.086,10.4021885 192.713,9.45418845 C195.056,8.08918845 197.592,7.36818845 200.297,7.21118845 C200.593,7.19418845 201.063,7.14518845 201.144,6.96918845 C201.538,6.11418845 202.25,6.19318845 202.969,6.19818845 C203.091,6.19918845 203.27,6.15318845 203.329,6.06518845 C204.673,4.08918845 206.78,4.76918845 208.625,4.50618845 C209.647,4.36018845 210.567,4.16218845 211.582,4.78018845 C212.266,5.19618845 213.004,4.50718845 213.532,4.00718845 C214.388,3.19718845 215.31,3.52818845 216.189,3.78618845 C216.43,3.85718845 216.689,4.10818845 216.982,4.06618845 C218.205,3.89218845 219.304,3.90918845 220.023,5.19518845 C220.296,5.68418845 220.855,5.59818845 221.289,5.25218845 C221.708,4.91918845 222.144,4.64818845 222.707,4.69918845 C222.872,4.71418845 223.079,4.69418845 223.19,4.78418845 C223.445,4.99218845 222.421,5.52618845 223.319,5.55418845 C223.991,5.57518845 224.591,5.18118845 225.219,4.87718845 C226.815,4.10418845 228.445,2.98118845 230.341,4.00018845 C230.767,4.22918845 231.02,4.13318845 231.406,4.03118845 C232.072,3.85518845 232.821,3.39818845 233.394,4.26318845 C233.44,4.33218845 233.671,4.37118845 233.737,4.32118845 C235.093,3.28418845 237.261,4.46618845 238.323,2.64418845 C239.34,2.92918845 240.515,2.94318845 241.225,3.82318845 C241.623,4.31618845 241.837,4.35818845 242.382,4.11718845 C243.075,3.81118845 243.859,3.38518845 244.508,4.29818845 C244.786,4.69018845 245.153,4.38318845 245.446,4.26718845 C245.802,4.12618845 246.011,3.84318845 245.816,3.43218845 C245.661,3.10518845 245.466,2.76818845 245.916,2.53818845 C246.359,2.31118845 246.577,2.55218845 246.849,2.93018845 C247.264,3.50618845 247.888,3.63418845 248.571,3.32618845 C249.27,3.01018845 250.036,2.88518845 250.745,2.63718845 C251.488,2.37718845 252.02,1.80018845 252.575,2.94118845 C252.755,3.31118845 253.563,3.06418845 253.983,2.73218845 C254.311,2.47318845 254.727,2.50118845 255.017,2.35518845 C256.683,1.51518845 258.189,2.94918845 259.798,2.59518845 C259.97,2.55718845 260.231,2.69318845 260.382,2.82618845 C261.261,3.60418845 262.146,3.89318845 263.329,3.37018845 C263.777,3.17218845 264.477,3.62618845 265.063,3.63318845 C265.792,3.64218845 266.521,3.49318845 267.15,3.05618845 C267.322,2.93718845 267.599,2.71018845 267.684,2.76318845 C269.593,3.95418845 270.994,2.19818845 272.638,1.90618845 C273.253,1.79718845 273.958,1.54218845 274.415,1.86918845 C275.284,2.48918845 276.081,2.17418845 276.88,1.94218845 C277.531,1.75318845 278.056,1.62918845 278.662,2.12018845 C279.248,2.59518845 279.707,2.06318845 280.105,1.66918845 C280.666,1.11318845 281.129,0.695188454 281.89,1.51718845 C282.351,2.01518845 283.172,2.05918845 283.808,1.78018845 C284.566,1.44718845 285.255,1.77918845 285.965,1.75718845 C287.761,1.70218845 289.721,2.22618845 291.168,0.546188454 C291.778,-0.161811546 292.278,-0.293811546 292.71,0.830188454 C292.922,1.38118845 293.759,1.66618845 294.344,1.47518845 C294.866,1.30518845 295.261,1.61118845 295.511,1.73018845 C296.868,2.37518845 297.968,2.35418845 298.721,1.26518845 C298.975,0.898188454 299.115,0.601188454 299.552,0.725188454 C300.008,0.854188454 300.175,1.05718845 299.745,1.52818845 C299.624,1.66018845 300.263,1.95018845 300.523,1.80618845 C301.453,1.28818845 302.562,1.47218845 303.489,0.982188454 C303.794,0.820188454 304.056,0.989188454 304.349,1.10418845 C304.908,1.32318845 305.564,1.59818845 306.076,1.14818845 C306.927,0.399188454 307.678,0.916188454 308.417,1.24118845 C308.725,1.37718845 308.942,1.68718845 309.332,1.50318845 C311.243,0.602188454 313.074,1.71018845 314.946,1.71718845 C316.331,1.72218845 317.719,1.53218845 318.81,0.550188454 C319.276,0.131188454 319.569,0.0291884541 320.137,0.453188454 C320.777,0.930188454 321.56,1.22718845 322.434,0.988188454 C322.716,0.911188454 323.114,0.867188454 323.331,1.00718845 C324.339,1.65718845 325.076,1.06518845 325.798,0.516188454 C326.457,0.0141884541 327.002,-0.167811546 327.527,0.669188454 C327.774,1.06318845 328.235,1.31918845 328.644,1.18318845 C330.069,0.707188454 331.355,1.20918845 332.729,1.46118845 C333.853,1.66718845 335.146,1.79118845 336.285,1.25318845 C336.723,1.04618845 337.024,1.10318845 337.344,1.38818845 C338.458,2.38018845 339.604,2.67218845 341.114,2.11018845 C341.794,1.85718845 342.823,2.24818845 343.634,2.20718845 C345.078,2.13518845 346.508,2.52618845 347.97,2.15818845 C348.941,1.91318845 349.727,2.23918845 348.93,3.51718845 C350.092,3.80118845 351.001,3.57318845 352.001,3.06018845 C353.096,2.49918845 354.381,2.30518845 355.587,1.96718845 C356.122,1.81718845 356.32,2.30518845 356.621,2.59418845 C357.215,1.35318845 358.184,1.02618845 359.443,1.50118845 C360.09,1.74518845 360.775,2.10418845 361.411,1.25218845 C361.956,0.522188454 362.775,0.453188454 363.457,1.15318845 C364.068,1.77918845 364.706,1.77918845 365.299,1.27418845 C365.945,0.725188454 366.364,0.885188454 366.962,1.38218845 C367.744,2.03218845 368.683,2.16518845 369.622,1.58718845 C369.766,1.49818845 370.043,1.35418845 370.073,1.39018845 C370.938,2.43118845 372.175,1.07418845 373.085,1.85718845 C373.189,1.94718845 373.554,1.89018845 373.681,1.77318845 C374.719,0.819188454 375.65,1.30618845 376.639,1.88518845 C377.701,2.50718845 378.751,2.00618845 379.748,1.63418845 C380.231,1.45418845 380.554,1.53718845 381.044,1.64218845 C382.932,2.04718845 384.647,3.01218845 386.614,3.19318845 C387.465,3.27118845 387.769,2.39218845 388.718,2.56918845 C389.881,2.78618845 391.098,3.28718845 392.363,2.89218845 C392.565,2.82918845 392.911,3.02318845 393.013,2.71218845 C393.435,1.42518845 394.454,2.02618845 395.29,1.89618845 C397.82,1.50318845 400.339,2.60618845 402.853,1.89818845 C403.42,1.73818845 403.636,2.33918845 404.148,2.36918845 C405.31,2.43918845 406.378,2.65218845 407.535,1.95218845 C408.353,1.45718845 409.541,1.85218845 410.567,1.76518845 C411.432,1.69218845 412.346,2.14218845 413.215,1.60618845 C413.249,1.58518845 413.32,1.56818845 413.341,1.58618845 C414.507,2.61518845 416.146,1.84918845 417.339,2.60818845 C418.162,3.13118845 418.878,2.97418845 419.571,2.56918845 C420.449,2.05618845 421.257,2.00118845 422.144,2.50618845 C423.302,3.16518845 424.535,3.18418845 425.797,2.84318845 C426.883,2.54918845 428.006,2.77618845 428.781,3.41818845 C429.494,4.00918845 429.877,3.84118845 430.334,3.35718845 C431.195,2.44418845 432.108,3.11618845 432.971,3.26218845 C433.368,3.32918845 433.46,3.45918845 433.713,2.99418845 C434.048,2.38018845 434.796,2.22818845 435.374,2.68318845 C436.064,3.22518845 436.507,3.66318845 437.544,3.06818845 C438.295,2.63818845 439.487,2.35118845 440.416,3.12218845 C440.809,3.44818845 440.96,3.02318845 441.18,2.90418845 C442.507,2.18318845 443.867,1.97818845 445.315,2.49618845 C445.932,2.71718845 446.469,2.57318845 447.027,2.18718845 C447.485,1.87118845 448.018,1.28618845 448.638,2.16118845 C448.868,2.48618845 449.31,2.06318845 449.636,1.83818845 C450.251,1.41518845 450.898,1.09918845 451.32,2.10518845 C451.381,2.24918845 451.595,2.47418845 451.66,2.45118845 C453.345,1.83718845 454.725,3.55818845 456.385,3.05618845 C456.993,2.87218845 457.26,3.62218845 458.099,3.43918845 C459.563,3.12018845 461.087,2.84918845 462.76,3.29418845 C464.29,3.70118845 466.108,4.21018845 467.63,3.84218845 C469.191,3.46418845 470.368,3.04318845 471.86,4.11618845 C472.303,4.43418845 473.338,4.52718845 474.036,4.91418845 C474.452,5.14418845 475.024,5.32718845 474.167,5.84418845 C473.795,6.06918845 474.151,6.46818845 474.473,6.62418845 C475.689,7.21418845 475.591,7.96818845 475.327,9.23218845 C474.963,10.9751885 473.859,12.1511885 472.959,13.4621885 C472.297,14.4271885 471.034,14.8961885 470.069,15.6291885 C469.242,16.2571885 468.588,17.2671885 467.29,17.2621885 C466.775,17.2601885 466.331,17.9071885 466.129,18.4251885 C465.646,19.6631885 464.463,20.2511885 463.695,21.2201885 C462.962,22.1451885 461.981,22.0411885 460.987,21.7021885 C460.495,21.5341885 460.027,21.3621885 460.243,22.2391885 C460.433,23.0071885 460.06,23.5861885 459.454,24.0251885 C458.955,24.3861885 458.588,24.8171885 458.854,25.4601885 C459.093,26.0371885 459.642,26.2891885 460.213,26.3301885 C461.487,26.4221885 462.64,26.9271885 463.808,27.3481885 C464.562,27.6201885 465.221,27.8711885 465.793,27.1161885 C465.894,26.9821885 466.041,26.9631885 466.015,27.0471885 C465.704,28.0541885 467.163,27.0871885 467.039,28.0161885 C466.922,28.8891885 466.634,29.7301885 466.22,30.4131885 C465.797,31.1121885 466.168,31.0991885 466.567,31.2561885 C466.645,31.2871885 466.743,31.3001885 466.825,31.2851885 C469.021,30.8781885 471.091,31.7611885 473.232,31.9171885 C473.519,31.9381885 473.889,32.0511885 474.058,32.2561885 C474.964,33.3521885 476.163,32.8001885 477.228,32.8231885 C477.846,32.8361885 479.671,33.7051885 479.845,34.3321885 C479.88,34.4561885 479.83,34.6541885 479.903,34.7091885 C480.544,35.1971885 481.136,35.6721885 481.103,36.6201885 C481.096,36.8111885 481.563,36.6931885 481.794,36.5731885 C482.425,36.2451885 483.05,35.9071885 483.787,35.5151885 C483.676,36.3941885 482.969,36.3461885 482.537,36.6151885 C481.904,37.0091885 481.878,37.4671885 482.51,37.7901885 C483.285,38.1861885 483.971,38.6671885 484.925,38.8531885 C486.849,39.2281885 488.435,40.3591885 489.361,42.2021885 C490.025,43.5231885 491.426,42.6911885 492.362,43.2391885 C492.66,43.4131885 493.231,42.8801885 493.38,43.4301885 C493.499,43.8711885 492.893,43.9651885 492.65,44.2451885 C492.233,44.7261885 490.913,44.7931885 491.833,45.9491885 C492.013,46.1751885 491.692,46.3041885 491.506,46.4001885 C490.503,46.9181885 489.472,47.4671885 488.335,47.4361885 C487.534,47.4151885 487.083,47.9421885 486.469,48.2041885 C486.234,48.3041885 486.003,48.5171885 486.145,48.8221885 C486.29,49.1351885 486.605,49.3261885 486.893,49.1021885 C487.417,48.6951885 487.633,48.9611885 488.058,49.3181885 C488.725,49.8781885 489.513,49.5561885 490.272,49.2621885 C491.021,48.9711885 491.942,48.1221885 492.433,49.6121885 C493.363,49.3291885 494.223,50.6151885 495.174,49.7341885 C495.247,49.6671885 495.204,49.4711885 495.379,49.6821885 C495.617,49.9671885 495.8,51.0301885 496.288,49.7711885 C496.376,49.5451885 496.782,50.0371885 496.822,50.2931885 C496.963,51.1871885 497.036,52.0911885 497.137,52.9911885 C497.169,53.2771885 497.063,53.6271885 496.858,53.6821885 C495.613,54.0151885 495.281,55.3691885 494.307,55.9291885 C493.147,56.5951885 491.951,57.1661885 490.638,57.6171885 C488.918,58.2081885 487.491,58.2791885 485.756,57.9981885 C483.642,57.6551885 481.464,57.9691885 479.334,58.4281885 C478.865,58.5291885 478.876,59.0691885 478.381,59.0441885 C478.356,57.9181885 477.739,57.6361885 476.715,57.8841885 C475.448,58.1911885 474.303,58.9441885 473.144,59.2581885 C472.121,59.5361885 471.092,59.9971885 470.015,60.1291885 C469.808,60.1541885 469.568,59.8881885 469.3,60.0541885 C469.834,61.3051885 471.006,62.0871885 472.17,61.8621885 C473.757,61.5561885 475.356,61.6941885 476.948,61.6011885 C477.2,61.5861885 477.478,61.7071885 477.393,61.9301885 C476.731,63.6691885 478.241,63.1811885 479.084,63.5151885 C477.754,65.1771885 476.365,66.3541885 474.238,67.1091885 C471.758,67.9891885 469.15,67.2011885 466.74,68.3031885 C466.237,68.5331885 465.127,67.8191885 464.092,67.9951885 C461.327,68.4631885 458.559,68.9491885 455.764,69.2781885 C453.782,69.5111885 451.372,69.0191885 449.611,70.7601885 C449.338,71.0301885 448.524,70.7181885 447.962,70.7391885 C445.656,70.8241885 443.349,70.9131885 441.045,71.0521885 C440.522,71.0841885 439.696,70.9861885 440.27,72.0651885 C440.816,73.0911885 439.732,73.7591885 439.206,73.7731885 C437.746,73.8101885 436.778,74.8141885 435.537,75.2261885 C435.031,75.3941885 434.438,75.6401885 434.086,75.1881885 C433.765,74.7761885 434.324,74.4241885 434.569,74.0911885 C434.783,73.8001885 435.022,73.5201885 434.857,73.1471885 C434.69,72.7691885 434.312,73.0151885 434.047,72.9321885 C432.785,72.5361885 431.41,73.1841885 430.151,72.3861885 C429.605,72.0401885 428.561,72.4271885 428.204,72.6951885 C426.477,73.9931885 424.68,73.1621885 422.921,73.1661885 C421.963,73.1681885 421.006,73.1591885 420.129,73.5921885 C419.831,73.7391885 419.556,73.8051885 419.26,73.7221885 C416.795,73.0301885 416.425,73.1481885 414.95,75.1691885 C414.711,75.4971885 414.432,75.9031885 414.022,75.7631885 C412.777,75.3381885 411.699,76.0531885 410.545,76.2011885 C410.046,76.2651885 409.641,76.2861885 409.187,76.0501885 C408.622,75.7551885 407.838,75.6691885 407.424,75.9971885 C405.927,77.1851885 404.227,77.1131885 402.49,77.1381885 C401.242,77.1561885 400.05,77.7281885 398.732,77.3341885 C397.928,77.0941885 397.126,77.2611885 396.347,77.9531885 C395.836,78.4071885 394.782,78.6611885 394.017,77.9101885 C393.958,77.8521885 393.866,77.7741885 393.802,77.7841885 C391.2,78.1881885 388.591,77.1421885 386.003,77.7761885 C383.258,78.4481885 380.55,77.7761885 377.827,77.6651885 C377.379,77.6471885 376.782,77.3311885 376.892,76.9461885 C377.043,76.4171885 377.471,75.8631885 378.047,75.6401885 C378.617,75.4191885 379.21,75.2751885 379.688,74.8641885 C379.91,74.6731885 380.288,74.5311885 380.076,74.1631885 C379.906,73.8681885 379.517,73.8411885 379.245,73.9591885 C377.715,74.6211885 376.244,75.4291885 375.25,76.7941885 C374.856,77.3361885 374.542,77.5221885 373.901,77.5271885 C372.718,77.5371885 371.485,77.2651885 370.393,78.0671885 C370.011,78.3481885 369.563,77.9861885 369.146,77.8811885 C367.088,77.3611885 365.026,76.2261885 362.967,77.9001885 C362.753,78.0741885 362.449,78.0741885 362.24,77.8691885 C361.981,77.6151885 362.336,77.5311885 362.414,77.3621885 C362.618,76.9191885 361.671,76.2691885 360.986,76.3731885 C360.929,76.3821885 358.205,77.6811885 358.143,77.7091885 C357.273,78.1051885 356.466,79.0961885 355.438,77.9681885 C355.165,77.6691885 354.878,77.9681885 354.596,78.0321885 C353.61,78.2581885 352.587,78.8571885 351.707,77.7761885 C351.647,77.7021885 351.436,77.6631885 351.349,77.7101885 C350.211,78.3251885 349.053,78.1851885 347.832,77.9781885 C346.506,77.7531885 345.162,77.9061885 343.837,78.2241885 C342.918,78.4441885 341.903,77.7281885 341.208,77.8881885 C339.611,78.2561885 338.097,77.6741885 336.548,77.9211885 C335.42,78.1011885 334.257,77.9331885 333.246,78.7301885 C332.646,79.2031885 331.818,78.6321885 331.693,78.2491885 C331.548,77.8021885 330.685,77.1441885 331.625,76.5751885 C331.76,76.4941885 331.947,76.2471885 331.911,76.1721885 C331.11,74.5121885 332.946,74.7111885 333.365,74.6031885 C334.23,74.3811885 334.301,73.7321885 334.562,73.2391885 C334.764,72.8581885 334.606,72.2971885 333.899,72.2941885 C332.042,72.2851885 330.146,72.4821885 328.338,72.1701885 C326.195,71.8001885 324.118,71.8631885 321.981,71.9831885 C321.149,72.0301885 320.213,71.6691885 319.304,71.6941885 C318.176,71.7251885 317.144,71.9781885 316.59,73.1181885 C316.514,72.2481885 315.84,72.4121885 315.27,72.1531885 C313.536,71.3631885 311.777,71.5141885 310.081,71.7851885 C308.549,72.0301885 307.085,72.2631885 305.572,71.8541885 C305.362,71.7971885 305.145,71.7551885 304.929,71.7291885 C304.524,71.6781885 304.013,71.6721885 303.988,72.1561885 C303.963,72.6491885 304.458,72.7221885 304.843,72.5691885 C305.351,72.3671885 305.7,72.7161885 305.821,72.9951885 C306.289,74.0741885 307.073,73.8471885 307.827,73.5301885 C308.189,73.3781885 308.477,73.3841885 308.822,73.4631885 C309.951,73.7211885 311.035,73.5681885 312.163,73.2911885 C313.014,73.0821885 314.03,72.3301885 314.833,73.2181885 C315.6,74.0441885 316.06,73.8161885 316.589,73.0861885 Z M373.673,73.2641885 C372.914,73.3821885 372.562,73.1081885 372.282,72.5831885 C371.978,72.0131885 371.492,71.6911885 370.843,71.3931885 C369.344,70.7041885 367.875,71.4051885 366.431,71.3771885 C365.396,71.3571885 364.154,71.4981885 363.134,71.3881885 C360.701,71.1271885 358.319,71.0261885 355.898,71.4011885 C354.836,71.5651885 353.667,71.7591885 352.671,71.4851885 C350.7,70.9421885 348.851,72.4051885 346.926,71.6341885 C346.877,71.6141885 346.784,71.7331885 346.703,71.7561885 C345.213,72.1921885 343.657,72.1171885 342.144,72.1411885 C341.375,72.1531885 340.425,72.5491885 339.893,72.2071885 C338.888,71.5601885 337.957,72.0471885 337.008,71.9661885 C336.22,71.8991885 335.94,72.2761885 336.11,73.0971885 C336.341,74.2171885 336.823,74.5061885 337.946,74.2191885 C339.343,73.8631885 340.715,73.2241885 342.199,73.4691885 C343.086,73.6151885 343.924,73.5891885 344.787,73.3711885 C345.798,73.1161885 346.782,72.8681885 347.777,73.6121885 C348.164,73.9011885 348.818,73.9741885 349.41,73.7291885 C349.839,73.5521885 350.362,73.3461885 350.805,73.6201885 C352.149,74.4521885 353.578,74.4081885 355.053,74.1661885 C356.157,73.9851885 357.279,74.2491885 358.362,74.1671885 C359.544,74.0771885 360.691,74.0851885 361.829,74.3211885 C362.715,74.5051885 363.538,74.5071885 364.385,74.1521885 C365.873,73.5281885 367.329,73.6861885 368.708,74.4981885 C368.927,74.6271885 369.105,74.9181885 369.372,74.8451885 C370.778,74.4611885 372.365,74.6151885 373.673,73.2641885 Z M259.854,59.3041885 C263.153,59.3141885 266.459,58.7111885 269.741,59.6661885 C270.475,59.8801885 271.415,59.6831885 272.176,59.4271885 C273.167,59.0941885 274.124,58.7681885 275.179,58.8931885 C275.7,58.9551885 276.167,58.8311885 276.39,58.3411885 C276.575,57.9331885 276.497,57.3751885 276.244,57.1081885 C275.894,56.7391885 275.386,56.9871885 274.913,57.1611885 C274.212,57.4191885 273.583,58.2581885 273.011,58.1531885 C270.585,57.7061885 268.201,58.9091885 265.79,58.1841885 C264.252,57.7211885 262.587,57.7651885 261.041,57.7111885 C259.396,57.6541885 257.267,56.9291885 255.985,58.9271885 C255.904,59.0531885 255.666,59.1001885 255.701,59.3051885 C255.747,59.5761885 255.996,59.5391885 256.196,59.6121885 C257.767,60.1881885 258.783,58.7821885 260.12,58.5411885 C260.232,58.5211885 260.351,58.5381885 260.474,58.5381885 C260.455,58.9851885 259.805,58.8461885 259.854,59.3041885 Z M280.464,58.8771885 C282.072,58.7901885 283.561,59.3931885 285.115,59.4091885 C285.504,59.4131885 285.945,59.2691885 286.255,59.3301885 C287.38,59.5501885 288.226,58.6091885 289.276,58.7201885 C290.786,58.8791885 292.378,58.8561885 293.772,59.3611885 C295.03,59.8171885 295.742,59.1091885 296.641,58.7271885 C296.88,58.6251885 297.266,58.0571885 296.741,57.9731885 C295.207,57.7291885 293.609,56.6041885 292.108,58.1151885 C291.881,58.3431885 291.509,58.6771885 291.194,58.4121885 C290.184,57.5621885 289.033,57.5771885 287.826,57.6691885 C286.267,57.7881885 284.7,57.6411885 283.136,57.6831885 C281.943,57.7151885 281.194,58.0331885 280.464,58.8771885 Z M313.202,57.8451885 C311.961,57.9491885 311.031,57.6811885 310.138,57.0401885 C309.356,56.4781885 308.351,56.2011885 307.404,56.4581885 C305.875,56.8731885 304.347,57.2571885 302.786,57.5361885 C302.173,57.6461885 301.887,58.2481885 301.933,58.8321885 C301.963,59.2141885 302.372,59.2761885 302.768,59.2131885 C304.302,58.9711885 305.835,58.6831885 307.38,58.5631885 C308.254,58.4951885 309.186,58.2001885 310.042,58.6501885 C311.625,59.4841885 311.86,59.4481885 313.202,57.8451885 Z M251.969,68.2071885 C251.203,68.2811885 250.787,67.9631885 250.327,67.7591885 C248.979,67.1611885 247.636,68.0141885 246.227,67.7221885 C245.565,67.5851885 244.607,68.2851885 243.67,68.0761885 C243.105,67.9501885 242.951,68.4631885 242.738,68.8251885 C242.429,69.3491885 242.937,69.4491885 243.193,69.7191885 C243.911,70.4741885 244.858,70.0541885 245.664,70.1701885 C247.905,70.4901885 250.034,70.0531885 251.969,68.2071885 Z M469.459,46.5161885 C470.533,46.6381885 471.468,46.7441885 472.393,46.9831885 C473.073,47.1591885 474.099,47.5331885 474.374,47.4521885 C475.792,47.0311885 477.07,47.1611885 478.416,47.5971885 C478.835,47.7331885 479.218,47.4021885 479.157,46.9321885 C479.109,46.5621885 479.267,45.8151885 478.656,45.9261885 C477.438,46.1471885 476.233,45.5111885 475.059,45.9431885 C474.219,46.2521885 473.497,46.1651885 472.691,45.7931885 C471.562,45.2731885 470.008,45.6211885 469.459,46.5161885 Z M239.67,67.2221885 C238.166,67.0731885 237.966,68.4071885 237.33,69.2191885 C237.102,69.5091885 236.917,69.8521885 237.284,70.1261885 C237.665,70.4111885 238.063,70.3061885 238.208,69.8381885 C238.318,69.4831885 238.412,69.4471885 238.809,69.4231885 C239.581,69.3771885 240.356,69.1431885 241.098,68.8931885 C241.495,68.7601885 241.994,68.3831885 241.419,67.9631885 C240.92,67.6001885 240.258,67.4611885 239.67,67.2221885 Z" id="Shape"></path>
        </g>
    </g>
</svg>